<svg version="1.1" id="Layer_1" xmlns="http://www.w3.org/2000/svg" x="0" y="0" viewBox="0 0 473.9 473.9" style="enable-background:new 0 0 473.9 473.9" xml:space="preserve"><style>.st0{fill:#c42d64}.st2{fill:#fff}</style><switch><g><circle class="st0" cx="237" cy="237" r="237"/><path class="st0" d="M404.5 69.4c92.5 92.5 92.6 242.6 0 335.1-92.5 92.5-242.6 92.5-335.1 0L404.5 69.4z"/><path d="M472.9 258.9 342.7 128.8l-8.6 8.6-17-17-15.7 15.7-14.3-14.3-55.9 55.9-59.5-59.5-5.7 5.8 4.2 4.2-2.6 2.6-12.2-12.2-6 6 5.6 5.6-5.4 5.4-10.6-10.3-12.6 12.6 11.5 11.5-11.5 11.5 4 4-4 4 9.6 9.6-19.4 19.4L164 245l-9.9 9.9 31.2 31.2-57.9 57.9 129 129c114.5-9.2 206-99.9 216.5-214.1z" style="fill:#840b3c"/><path class="st2" d="M358.7 205h-69.1c27 44.4-3.9 102.9-59.6 97.4-34-3.3-65.2-39.9-51.4-81.5.9-2.6 2.7-5.5 4.1-8.3 1.3-2.6 3.6-5.7 3-7.7h-68.5v114c2.3 22.3 19.8 39.8 42.5 41.9h157c22.7-2.3 39.7-21.3 41.9-41.3.1 0 .1-94.8.1-114.5z"/><path class="st2" d="M231.7 193.7c-9.3 1.1-14.3 3.1-18.9 5.9-10.6 6.4-20.6 18.3-22.4 34.2-3.6 32.2 20 54.3 47.2 54.3 21.7 0 48.1-15.5 47.8-47.8-.2-29.3-23.7-50.2-53.7-46.6zm40.8 56.1c-4 16.3-22 28.6-40.7 26-17.9-2.5-37.1-24.7-26.6-49.6 3.9-9.1 12.6-19.4 30.7-20.7 22.2-1.5 42.9 18.4 36.6 44.3z"/><path class="st2" d="M345.1 131.8c-6.5-6.5-17.2-12.5-28.9-13.6H181.6v61.4h-10v-61.4h-6.2v61.4h-10v-60.8c-2.2.4-4.4 1-6.5 1.7v59.1h-10v-54.3c-3.2 2-6 4.2-8.3 6.5-13.4 13.4-14.4 36.3-13.6 65.5h75c3-.7 6.7-4.5 9.4-6.5 10.1-7.4 23.1-11.5 36.3-11.6h.4c13.2.1 26.2 4.2 36.3 11.6 2.8 2 6.4 5.8 9.4 6.5h75c.2-29.5-.3-52.2-13.7-65.5zm-10.3 39.8c0 3.4-2.8 6.2-6.2 6.2h-25.9c-3.4 0-6.2-2.8-6.2-6.2v-25.9c0-3.4 2.8-6.2 6.2-6.2h25.9c3.4 0 6.2 2.8 6.2 6.2v25.9z"/></g></switch></svg>