<svg version="1.1" id="Слой_1" xmlns="http://www.w3.org/2000/svg" x="0" y="0" viewBox="0 0 510.2 510.2" style="enable-background:new 0 0 510.2 510.2" xml:space="preserve"><style>.st2{fill:#fff}</style><switch><g><path d="M348.9 18.1c-20.6-8-96.2-34.4-183.1-1.7-75.6 28.5-114 84.4-125 101.7-55.5 87.7-36.6 177.6-33.1 193 3.6 15.7 25.6 106 115.1 161 16.1 9.9 84.5 49.5 175 34.3 10.5-1.8 117-21.5 176.7-121.5 33.6-56.2 36-110.4 35.8-132.6-.1-15.6-2.4-101.7-69.5-172.7-12.3-12.8-42.9-42.3-91.9-61.5z" style="fill:#1a96e2"/><path d="M282 218.1c-65.6-.2-131.2-.3-196.8-.5 31.7 93.4 63.4 186.7 95.1 280.1 18.3 6.4 48.5 14.4 86 12.6 31.6-1.5 54.6-9.2 67.7-13.7 26.5-9.1 72-29.3 111.8-72.9 16.5-18.1 27.6-35.4 34.5-47.6-19-52.5-38-105-57-157.6-47.1 0-94.2-.2-141.3-.4z" style="fill:#0d6e9e"/><path class="st2" d="M269.2 242c15.7-11.9 30.5-19.3 41.3-23.8H282c-20.2 11.4-54.1 34.2-83.1 74.4-34.7 48.1-44.1 95.9-47.1 119.8 11.4-8.7 22.9-17.4 34.3-26.2 3.8-21.2 11.6-49.4 28.5-79.1 9-15.8 24.3-42.1 54.6-65.1z"/><path class="st2" d="m214.6 217.6-131.4-1.2c34.5 21.1 69 42.2 103.5 63.4 9.9-10.6 23.6-23.4 41.9-35.5 20-13.2 38.9-21.2 53.5-26.2-10.5-41.5-20.9-82.9-31.4-124.4-12.1 41.3-24.1 82.6-36.1 123.9zm128.4.5h-23.8c-14.4 5.9-50.6 22.9-77.9 62.8-25.6 37.4-29.5 74.4-30.2 90.1 8.9-7.6 17.8-15.1 26.7-22.7 4.8-19.2 17.2-57.4 51-91.6 19.4-19.5 39.5-31.4 54.2-38.6z"/><path class="st2" d="M423.3 218.7h-70.9c-13.1 5.2-38.7 17.3-61 43.6-26.1 30.7-32.8 63.3-34.9 77.3 31.4 24.4 62.8 48.8 94.2 73.3-14.9-42.2-29.8-84.5-44.8-126.7 39.1-22.5 78.2-45 117.4-67.5z"/></g></switch></svg>