<svg xmlns="http://www.w3.org/2000/svg" viewBox="0 0 510.2 510.2" style="enable-background:new 0 0 510.2 510.2" xml:space="preserve"><switch><g><path d="M99.2 52.2C180.7-10.1 271-.2 286.5 1.8c75.9 9.6 124.8 50.7 140.9 65.5 16.3 15 72.4 70.5 81.5 161.2 11 109.4-54.7 184.3-65.9 196.6-13.6 15-61.8 64.7-142.1 80-22.3 4.2-66.8 9.6-118.9-5.8-18-5.3-86.2-27.7-135-96.2-4.1-5.8-76.1-110.8-33.1-233.7C37 103.6 81.3 65.9 99.2 52.2z" style="fill:#ffcb08"/><path d="M261.1 98.8c-28.9 9.4-96.2 35.7-153.2 102.5-58.5 68.5-73.3 141.1-77.7 171.1 10.7 20.6 35.4 61.5 83.5 94 57.7 38.9 115.2 43 138.6 43.4 88.7 1.5 149.1-46.4 166.9-61.6 53.7-45.8 73.7-101.1 80.8-125-19.3-35.4-38.7-70.9-58-106.3-33.4 9.1-66.9 18.2-100.3 27.3-26.9-48.5-53.7-97-80.6-145.4z" style="fill:#a07a00"/><path d="M158.4 131.7c1.4-28.8 20.8-52.3 45.8-57.4 17.9-3.6 38.7 2.2 52.2 18 19.3 22.5 11 50.4 10.4 52.2-8 25.2-31 34.2-34.2 35.4-3.7 1.4-21.2 7.4-40.6-.6-11.1-4.5-18-11.6-21.5-15.7-20.2 15.3-45.2 37.8-67.9 69.6-46.3 65-56.3 131.4-58.9 165.1-10-15.6-22-37.7-31-65.9-9.1-28.5-12-53.8-12.8-72.5 15.3-23.2 40.9-55.8 80.6-85.3 28.7-21.2 56.3-34.5 77.9-42.9zm176.9 103.2c2.3-32.8 30.5-56.9 60.3-54.5 27 2.1 48.7 25.4 50.5 52.2 1.4 21.4-10.1 42.6-29.6 52.8C394.2 297 366 292 348 272.6c-24.6 11.2-77.2 39-118.9 98-36.1 51-47 101.1-50.8 127.4-15.3-5.4-33.3-13.1-52.4-24.2-14.9-8.7-27.6-17.7-38.2-26.2 14.8-31.3 45.2-85 102.6-133.9 55.8-47.5 112-68.9 145-78.8z" style="fill:#0c4ea3"/></g></switch></svg>