<svg xmlns="http://www.w3.org/2000/svg" viewBox="0 0 510.2 510.2" style="enable-background:new 0 0 510.2 510.2" xml:space="preserve"><switch><g><circle cx="255" cy="256" r="256" style="fill:#e60000"/><path d="M299.5 155.5c-13-2.1-31.6-3.6-53.5-.5-19.2 2.7-34.8 8.1-46 13-8 16.8-19.3 46-21 84-1.9 43.3 9.7 76.9 17.3 94.7 49.2 49.8 98.3 99.7 147.5 149.5 20.5-6.7 63.2-23.9 101.2-65.2 35.2-38.3 49-78.5 54.6-99.2C442.1 281.9 384.9 231.6 328 181l-28.5-25.5z" style="fill:#820000"/><path d="M299.5 155.5c-7.7-3.5-19.6-7.9-34.8-9.4-7.9-.7-37-2.6-66.2 15-46.9 28.2-52.3 81.3-52.5 84.5-2.6 31.2 9.3 55 15.5 65.2 5.2 8.7 22.8 35.4 58.1 47.7 43.6 15.2 80.7-3.2 86.3-6.1 42.8-22.2 54.2-64.1 55.8-70.8 1.4-5.4 12.3-51.9-17.8-91.9-14-18.6-31.1-28.2-40.9-32.7-3.9.7-15.2 3.2-24.6 13.2-12 12.7-12 28.2-11.9 31.5 5.3.8 18.4 3.5 30.5 14.2 3.4 3 14 12.8 17.8 29.4 4.6 20.5-4.4 36.7-7.1 41.4-4 7-13.4 20-30.7 26.4-25.8 9.5-48.3-3.6-51.3-5.3-26.3-15.8-29.7-45.9-30.5-52.3-4-34.7 18-59.9 23.4-66 29.9-34.2 73.7-34.1 80.9-34z" style="fill:#fff"/></g></switch></svg>