<svg xmlns="http://www.w3.org/2000/svg" viewBox="0 0 512 512" style="enable-background:new 0 0 512 512" xml:space="preserve"><circle style="fill:#e09112" cx="256" cy="256" r="256"/><path style="fill:#ff5419" d="M266.936 511.752c132.691-5.579 239.251-112.147 244.817-244.841L359.946 115.103l-20.016 19.373-40.767-40.931-12.931 5.675-16.26-16.341-29.918 8.918 70.811 70.811-95.665 99.857-18.22 31.06-45.658 102.731 115.614 115.496z"/><path style="fill:#386895" d="M355.95 398.222h-199.9a6.715 6.715 0 0 1-6.716-6.716V120.494a6.716 6.716 0 0 1 6.716-6.716h199.9a6.715 6.715 0 0 1 6.716 6.716v271.012a6.714 6.714 0 0 1-6.716 6.716z"/><path style="fill:#273b7a" d="M355.95 113.778H256v284.444h99.95a6.715 6.715 0 0 0 6.716-6.716V120.494a6.714 6.714 0 0 0-6.716-6.716z"/><path style="fill:#fff" d="M160.323 124.121h191.354v260.31H160.323z"/><path style="fill:#d0d1d3" d="M256 124.121h95.677v260.31H256z"/><path style="fill:#ffc61b" d="M274.341 90.936c-2.108-8.175-9.509-14.222-18.341-14.222s-16.234 6.047-18.341 14.222H219.08a8.763 8.763 0 0 0-8.764 8.763v28.157a8.764 8.764 0 0 0 8.764 8.764h73.84a8.763 8.763 0 0 0 8.763-8.764V99.699a8.763 8.763 0 0 0-8.763-8.763h-18.579zM256 101.71a6.034 6.034 0 1 1 0-12.068 6.034 6.034 0 0 1 0 12.068z"/><path style="fill:#eaa22f" d="M292.919 90.936H274.34c-2.108-8.175-9.509-14.222-18.341-14.222v12.929a6.034 6.034 0 1 1 0 12.068v34.909h36.919a8.763 8.763 0 0 0 8.763-8.763V99.699c.003-4.839-3.921-8.763-8.762-8.763z"/><path style="fill:#fff" d="M303.838 164.202h28.444v28.444h-28.444zm0 155.152h28.444v28.444h-28.444zm0-51.718h28.444v28.444h-28.444zm0-51.717h28.444v28.444h-28.444z"/><path style="fill:#808183" d="M170.667 174.011h113.778v8.814H170.667zm0 155.152h113.778v8.814H170.667zm0-51.718h113.778v8.814H170.667zm0-51.717h113.778v8.814H170.667z"/><path style="fill:#59595b" d="M256 174.011h28.444v8.814H256zm0 155.152h28.444v8.814H256zm0-51.718h28.444v8.814H256zm0-51.717h28.444v8.814H256z"/><path style="fill:#b54324" d="M312.889 191.785a4.296 4.296 0 0 1-3.365-1.619l-10.343-12.929a4.31 4.31 0 1 1 6.732-5.384l7.335 9.168 25.04-25.038c1.684-1.684 4.411-1.684 6.094 0s1.684 4.411 0 6.094l-28.444 28.444a4.307 4.307 0 0 1-3.049 1.264zm0 51.286a4.296 4.296 0 0 1-3.365-1.619l-10.343-12.929a4.31 4.31 0 1 1 6.732-5.384l7.335 9.168 25.04-25.038c1.684-1.684 4.411-1.684 6.094 0s1.684 4.411 0 6.094l-28.444 28.444a4.307 4.307 0 0 1-3.049 1.264zm0 51.286a4.296 4.296 0 0 1-3.365-1.619l-10.343-12.929a4.31 4.31 0 1 1 6.732-5.384l7.335 9.168 25.04-25.038c1.684-1.684 4.411-1.684 6.094 0s1.684 4.411 0 6.094l-28.444 28.444a4.307 4.307 0 0 1-3.049 1.264zm0 51.286a4.296 4.296 0 0 1-3.365-1.619l-10.343-12.929a4.31 4.31 0 1 1 6.732-5.384l7.335 9.168 25.04-25.038c1.684-1.684 4.411-1.684 6.094 0s1.684 4.411 0 6.094l-28.444 28.444a4.307 4.307 0 0 1-3.049 1.264z"/></svg>